<svg id="Layer_1" data-name="Layer 1" xmlns="http://www.w3.org/2000/svg" viewBox="0 0 177.52 56.68"><defs><style>.cls-1{font-size:14.85px;fill:#261a19;font-family:Poppins-Light, Poppins;font-weight:300;letter-spacing:0.25em;}.cls-2{letter-spacing:0.3em;}.cls-3{fill:#c86d05;}.cls-4{fill:#e8b64e;}.cls-5{fill:#598249;}.cls-6{fill:#f37329;}</style></defs><text class="cls-1" transform="translate(62.97 38.91)">GLOBA<tspan class="cls-2" x="66.67" y="0">LTTY</tspan></text><circle class="cls-3" cx="39.85" cy="16.61" r="6.01"/><circle class="cls-4" cx="52.03" cy="14.43" r="3.81"/><circle class="cls-5" cx="45.45" cy="4.46" r="4.46"/><path class="cls-6" d="M67,39.26v0a6.25,6.25,0,0,0-9.38-5.14,14.48,14.48,0,0,1-3.23,1.1,20.65,20.65,0,0,1-7.24.29,12.24,12.24,0,0,1-4.35-1.26,6,6,0,0,0-2.7-.65,6,6,0,1,0,0,12,6,6,0,0,0,3.8-1.36,10.87,10.87,0,0,1,3.84-1.82,7.57,7.57,0,0,1,6.22.8h0a16.37,16.37,0,0,1-32.17-4.68A15.8,15.8,0,0,1,36.65,22.91c1.55.07,1.55.07,2.17.07a5.73,5.73,0,0,0,.82-.05,6.63,6.63,0,0,0,5.44-6.14,6.27,6.27,0,0,0-6.26-6.34A28.16,28.16,0,1,0,66.9,40.37a5.51,5.51,0,0,0,.07-.86A2,2,0,0,0,67,39.26Z" transform="translate(-10.48 -10.08)"/></svg>